# AST/ASF file generated using VICON BodyLanguage
# -----------------------------------------------
:version 1.10
:name VICON
:units
  mass 1.0
  length 0.45
  angle deg
:documentation
   .ast/.asf automatically generated from VICON data using
   VICON BodyBuilder and BodyLanguage model FoxedUp or BRILLIANT.MOD
:root
   order TX TY TZ RX RY RZ
   axis XYZ
   position 0 0 0  
   orientation 0 0 0 
:bonedata
  begin
     id 1 
     name lhipjoint
     direction 0.57768 -0.667037 0.470475 
     length 2.36008 
     axis 0 0 0  XYZ
  end
  begin
     id 2 
     name lfemur
     direction 0.34202 -0.939693 0  
     length 6.97235  
     axis 0 0 20  XYZ
    dof rx ry rz
    limits (-160.0 20.0)
           (-70.0 70.0)
           (-60.0 70.0)
  end
  begin
     id 3 
     name ltibia
     direction 0.34202 -0.939693 0   
     length 6.93428   
     axis 0 0 20   XYZ
    dof rx
    limits (-10.0 170.0)
  end
  begin
     id 4 
     name lfoot
     direction 0.133018 -0.365463 0.921272   
     length 2.18603   
     axis -90 7.62852e-016 20   XYZ
    dof rx rz
    limits (-45.0 90.0)
           (-70.0 20.0)
  end
  begin
     id 5 
     name ltoes
     direction 1.53519e-011 -4.22055e-011 1   
     length 1.07924   
     axis -90 7.62852e-016 20   XYZ
    dof rx
    limits (-90.0 20.0)
  end
  begin
     id 6 
     name rhipjoint
     direction -0.577712 -0.667019 0.470462   
     length 2.36015  
     axis 0 0 0  XYZ 
  end
  begin
     id 7 
     name rfemur
     direction -0.34202 -0.939693 0   
     length 6.71195   
     axis 0 0 -20   XYZ
    dof rx ry rz
    limits (-160.0 20.0)
           (-70.0 70.0)
           (-70.0 60.0)
  end
  begin
     id 8 
     name rtibia
     direction -0.34202 -0.939693 0   
     length 7.04592   
     axis 0 0 -20   XYZ
    dof rx
    limits (-10.0 170.0)
 end
 begin
     id 9 
     name rfoot
     direction -0.113796 -0.312651 0.943027   
     length 2.03846  
     axis -90 -7.62852e-016 -20   XYZ
    dof rx rz
    limits (-45.0 90.0)
           (-20.0 70.0)
  end
  begin
     id 10 
     name rtoes
     direction -1.53586e-011 -4.218e-011 1   
     length 1.01562   
     axis -90 -7.62852e-016 -20   XYZ
    dof rx
    limits (-90.0 20.0)
  end
  begin
     id 11 
     name lowerback
     direction -0.0417299 0.991937 -0.119667   
     length 2.05257   
     axis 0 0 0   XYZ
    dof rx ry rz
    limits (-20.0 45.0)
           (-30.0 30.0)
           (-30.0 30.0)
  end
  begin
     id 12 
     name upperback
     direction -0.00017666 0.999999 0.00105178   
     length 2.05693   
     axis 0 0 0   XYZ
    dof rx ry rz
    limits (-20.0 45.0)
           (-30.0 30.0)
           (-30.0 30.0)
  end
  begin
     id 13 
     name thorax
     direction 0.0185169 0.998203 0.0569866   
     length 2.0932   
     axis 0 0 0   XYZ
    dof rx ry rz
    limits (-20.0 45.0)
           (-30.0 30.0)
           (-30.0 30.0)
  end
  begin
     id 14 
     name lowerneck
     direction -0.0212406 0.982645 0.184277   
     length 1.72509   
     axis 0 0 0   XYZ
    dof rx ry rz
    limits (-20.0 45.0)
           (-30.0 30.0)
           (-30.0 30.0)
  end
  begin
     id 15 
     name upperneck
     direction 0.00528579 0.965323 -0.261004   
     length 1.76294   
     axis 0 0 0   XYZ
    dof rx ry rz
    limits (-20.0 45.0)
           (-30.0 30.0)
           (-30.0 30.0)
  end
  begin
     id 16
     name head
     direction 0.00695421 0.994078 -0.108445  
     length 1.78678  
     axis 0 0 0   XYZ
    dof rx ry rz
    limits (-20.0 45.0)
           (-30.0 30.0)
           (-30.0 30.0)
  end
  begin
     id 17 
     name lclavicle
     direction 0.97277 0.211305 -0.095232  
     length 3.84823  
     axis 0 0 0   XYZ
    dof ry rz
    limits (-20.0 10.0)
           (0.0 20.0)
  end
  begin
     id 18 
     name lhumerus
     direction 1 -4.48957e-011 -1.98313e-027   
     length 4.97185   
     axis 180 -30 -90   XYZ
    dof rx ry rz
    limits (-60.0 90.0)
           (-90.0 90.0)
           (-90.0 90.0)
  end
  begin
     id 19
     name lradius
     direction 1 -4.4898e-011 7.31063e-027   
     length 3.35811   
     axis 180 -30 -90   XYZ
    dof rx
    limits (-10.0 170.0)
  end
  begin
     id 20
     name lwrist
     direction 1 -4.48938e-011 9.95048e-027   
     length 1.67905   
     axis -8.75986e-015 90 90   XYZ
    dof ry
    limits (-180.0 0.0)
 end
  begin
     id 21 
     name lhand
     direction 1 -4.4901e-011 1.9901e-026   
     length 0.622776   
     axis -1.26985e-014 90 90   XYZ
    dof rx rz
    limits (-90.0 90.0)
           (-45.0 45.0)
  end
  begin
     id 22 
     name lfingers
     direction 1 -4.48961e-011 3.98019e-026   
     length 0.502098   
     axis -2.5397e-014 90 90   XYZ
    dof rx
    limits (0.0 90.0)
  end
  begin
     id 23
     name lthumb
     direction 0.707107 -6.34933e-011 0.707107   
     length 0.720915   
     axis -90 45 2.85299e-015   XYZ
    dof rx rz
    limits (-45.0 45.0)
           (-45.0 45.0)
  end
  begin
     id 24 
     name rclavicle
     direction -0.990867 0.133739 -0.0172226   
     length 3.78845  
     axis 0 0 0   XYZ 
    dof ry rz
    limits (-10.0 20.0)
           (-20.0 0.0)
  end
  begin
     id 25 
     name rhumerus
     direction -1 -4.48972e-011 -1.99267e-027  
     length 4.96493   
     axis 180 30 90   XYZ
    dof rx ry rz
    limits (-90.0 60.0)
           (-90.0 90.0)
           (-90.0 90.0)
  end
  begin
     id 26 
     name rradius
     direction -1 -4.48969e-011 8.96093e-027   
     length 3.34929   
     axis 180 30 90   XYZ
    dof rx
    limits (-10.0 170.0)
  end
  begin
     id 27 
     name rwrist
     direction -1 -4.48953e-011 9.95048e-027   
     length 1.67464   
     axis -8.75986e-015 -90 -90   XYZ
    dof ry
    limits (-180.0 0.0)
  end
  begin
     id 28
     name rhand
     direction -1 -4.49001e-011 1.9901e-026   
     length 0.638041   
     axis -1.26985e-014 -90 -90   XYZ
    dof rx rz
    limits (-90.0 90.0)
           (-45.0 45.0)
  end
  begin
     id 29
     name rfingers
     direction -1 -4.48967e-011 3.98019e-026   
     length 0.514405   
     axis -2.5397e-014 -90 -90   XYZ
    dof rx
    limits (0.0 90.0)
  end
  begin
     id 30
     name rthumb
     direction -0.707107 -6.34904e-011 0.707107   
     length 0.738586   
     axis -90 -45 -2.85299e-015   XYZ
    dof rx rz
    limits (-45.0 45.0)
           (-45.0 45.0)
  end
:hierarchy
  begin
    root lhipjoint rhipjoint lowerback
    lhipjoint lfemur
    lfemur ltibia
    ltibia lfoot
    lfoot ltoes
    rhipjoint rfemur
    rfemur rtibia
    rtibia rfoot
    rfoot rtoes
    lowerback upperback
    upperback thorax
    thorax lowerneck lclavicle rclavicle
    lowerneck upperneck
    upperneck head
    lclavicle lhumerus
    lhumerus lradius
    lradius lwrist
    lwrist lhand lthumb
    lhand lfingers
    rclavicle rhumerus
    rhumerus rradius
    rradius rwrist
    rwrist rhand rthumb
    rhand rfingers
  end

#!OML:ASF E:\Mandelcareful walks\Project 1\Capture day 1\Session 1\Subject1.ASF
:FULLY-SPECIFIED
:DEGREES
131
root -27.8655 15.884 1.71754 -165.555 72.7994 -180.127
lowerback 4.92423 3.69712 -0.268132
upperback 5.28878 5.0789 0.36123
thorax 2.64054 2.59412 0.394183
lowerneck -24.6923 0.0202414 -5.29106
upperneck 29.7211 3.71536 -2.25566
head 14.3464 0.844167 0.745292
rclavicle 5.68524e-014 -7.23576e-014
rhumerus -30.7381 18.5589 -86.5058
rradius 52.8151
rwrist -20.1171
rhand -11.9763 -31.875
rfingers 7.12502
rthumb 14.0799 -61.378
lclavicle 5.68524e-014 -7.23576e-014
lhumerus -45.2967 2.12406 87.1174
lradius 28.2484
lwrist 12.9364
lhand -20.8394 -12.2226
lfingers 7.12502
lthumb 5.52945 17.6853
rfemur -0.856862 7.80932 18.5509
rtibia 19.1114
rfoot -39.4951 -32.9144
rtoes -2.73383
lfemur -39.4887 18.5361 -13.3842
ltibia 53.2595
lfoot -19.9122 8.0513
ltoes -11.5666
132
root -27.7001 15.8008 1.56941 -163.728 72.1738 -178.377
lowerback 5.02158 3.67922 0.0676929
upperback 5.45028 5.07423 0.496617
thorax 2.77084 2.60485 0.348573
lowerneck -25.3805 -0.691903 -5.94842
upperneck 29.2494 2.66032 -1.54521
head 14.2773 0.405361 0.936485
rclavicle 2.34566e-014 -6.36111e-015
rhumerus -29.7575 19.5746 -86.06
rradius 54.8276
rwrist -20.572
rhand -12.1605 -31.4969
rfingers 7.12502
rthumb 13.9023 -61.0122
lclavicle 2.34566e-014 -6.36111e-015
lhumerus -45.5793 3.56634 86.0746
lradius 27.6451
lwrist 12.0256
lhand -17.8588 -12.3496
lfingers 7.12502
lthumb 8.40663 17.4631
rfemur 0.643197 9.61154 19.4845
rtibia 17.9429
rfoot -41.5732 -34.6328
rtoes -1.5812
lfemur -40.7685 19.2513 -12.7384
ltibia 54.1078
lfoot -20.0613 8.3217
ltoes -11.9576
133
root -27.5306 15.7046 1.419 -162.163 71.4274 -176.712
lowerback 5.41711 3.83228 0.360672
upperback 5.42967 5.29253 0.505778
thorax 2.55454 2.72632 0.159775
lowerneck -25.4547 -1.51892 -5.95753
upperneck 28.6768 1.17987 -0.960781
head 14.0683 -0.146109 0.8823
rclavicle -3.45885e-014 3.97569e-016
rhumerus -29.2922 19.4575 -85.7877
rradius 56.8571
rwrist -20.7223
rhand -12.0501 -31.4143
rfingers 7.12502
rthumb 14.0087 -60.9222
lclavicle -3.45885e-014 3.97569e-016
lhumerus -46.0407 3.98741 84.9617
lradius 27.1624
lwrist 11.6963
lhand -19.6332 -13.9272
lfingers 7.12502
lthumb 6.69396 15.947
rfemur 2.4553 11.3661 20.5601
rtibia 16.7207
rfoot -43.6256 -36.181
rtoes -1.24153
lfemur -41.9176 20.024 -12.1239
ltibia 55.151
lfoot -19.5899 8.52406
ltoes -14.4312
134
root -27.337 15.6033 1.243 -161.041 70.7814 -175.396
lowerback 5.60658 3.72746 0.329062
upperback 5.65473 5.1662 0.826375
thorax 2.65071 2.6641 0.505143
lowerneck -26.0084 -2.19425 -6.77577
upperneck 28.1993 0.264582 -0.201069
head 14.0015 -0.529154 1.14111
rclavicle -2.5842e-014 -9.93923e-015
rhumerus -28.2379 20.2295 -84.9885
rradius 58.4586
rwrist -21.0179
rhand -11.8167 -31.307
rfingers 7.12502
rthumb 14.2336 -60.7992
lclavicle -2.5842e-014 -9.93923e-015
lhumerus -46.2548 5.27946 84.1897
lradius 26.9148
lwrist 12.2003
lhand -18.772 -11.5968
lfingers 7.12502
lthumb 7.52522 18.2493
rfemur 4.41952 11.9298 21.2368
rtibia 15.5079
rfoot -44.2825 -36.9417
rtoes -1.68517
lfemur -42.7233 20.7746 -11.6699
ltibia 56.4201
lfoot -19.496 7.89013
ltoes -15.357
135
root -27.1245 15.5114 1.04582 -160.244 69.9609 -174.59
lowerback 5.42797 3.78528 0.454968
upperback 5.67574 5.24702 0.942428
thorax 2.77175 2.70711 0.566825
lowerneck -25.778 -3.01181 -7.26627
upperneck 27.6704 -1.06384 0.649874
head 13.7851 -1.02868 1.30358
rclavicle -1.07741e-013 -3.45885e-014
rhumerus -27.8195 19.7482 -84.3485
rradius 59.8615
rwrist -21.0358
rhand -11.5594 -30.4877
rfingers 7.12502
rthumb 14.4816 -59.9623
lclavicle -1.07741e-013 -3.45885e-014
lhumerus -46.5047 5.56126 83.3233
lradius 26.8217
lwrist 12.8539
lhand -17.7031 -11.8485
lfingers 7.12502
lthumb 8.55684 17.9581
rfemur 6.33352 11.4331 21.5214
rtibia 14.31
rfoot -44.099 -36.7311
rtoes -2.28973
lfemur -43.5285 21.2313 -11.4071
ltibia 57.9716
lfoot -19.8956 6.86059
ltoes -14.0955
136
root -26.8995 15.42 0.833401 -159.453 69.0322 -173.959
lowerback 5.06593 3.87031 0.612177
upperback 5.45632 5.34906 0.968395
thorax 2.75582 2.75645 0.521009
lowerneck -25.0498 -3.78821 -7.35569
upperneck 27.234 -2.43445 1.2694
head 13.5238 -1.53727 1.30562
rclavicle 2.78299e-015 3.61788e-014
rhumerus -28.0214 18.7216 -83.9639
rradius 61.0494
rwrist -20.8228
rhand -11.5982 -29.42
rfingers 7.12502
rthumb 14.4441 -58.8973
lclavicle 2.78299e-015 3.61788e-014
lhumerus -46.6942 5.56744 82.1638
lradius 26.6938
lwrist 13.012
lhand -17.7117 -12.5024
lfingers 7.12502
lthumb 8.54856 17.3046
rfemur 8.17125 10.4419 21.5912
rtibia 13.0365
rfoot -43.1375 -36.2021
rtoes -4.03918
lfemur -44.4415 21.656 -11.3245
ltibia 59.8823
lfoot -20.1485 5.96871
ltoes -13.1681
137
root -26.6642 15.3261 0.607113 -158.87 68.2002 -173.592
lowerback 4.80874 3.677 0.469027
upperback 5.49771 5.08543 1.17374
thorax 2.91138 2.61686 0.837535
lowerneck -25.8856 -4.4003 -7.89362
upperneck 27.2593 -3.21278 1.79233
head 13.7667 -1.86374 1.44221
rclavicle -8.34896e-014 4.01545e-014
rhumerus -27.5577 18.5505 -83.3121
rradius 61.8807
rwrist -20.7756
rhand -12.1231 -28.6623
rfingers 7.12502
rthumb 13.9383 -58.1751
lclavicle -8.34896e-014 4.01545e-014
lhumerus -46.1313 6.18443 81.365
lradius 26.7918
lwrist 13.3522
lhand -16.6288 -10.4993
lfingers 7.12502
lthumb 9.59355 19.2623
rfemur 9.83607 9.02003 21.3141
rtibia 11.8903
rfoot -41.2408 -35.8091
rtoes -7.88026
lfemur -45.2372 22.3079 -11.5006
ltibia 62.1183
lfoot -20.2011 4.82894
ltoes -13.2013
138
root -26.4175 15.2296 0.362813 -158.484 67.5067 -173.506
lowerback 4.52134 3.64266 0.301265
upperback 5.20179 5.01683 1.19009
thorax 2.74833 2.56931 0.954326
lowerneck -25.7544 -5.04886 -8.42599
upperneck 27.2172 -4.23298 2.66893
head 13.8192 -2.23583 1.68235
rclavicle 1.13307e-013 -1.27222e-014
rhumerus -28.1522 17.8532 -83.1476
rradius 62.581
rwrist -20.9942
rhand -13.2747 -27.9364
rfingers 7.12502
rthumb 12.8284 -57.5223
lclavicle 1.13307e-013 -1.27222e-014
lhumerus -46.0542 5.44344 80.8642
lradius 27.7833
lwrist 14.4305
lhand -16.1119 -14.616
lfingers 7.12502
lthumb 10.0922 15.122
rfemur 11.2719 7.12617 20.5774
rtibia 11.0968
rfoot -38.7651 -34.8093
rtoes -11.9349
lfemur -45.8374 23.0137 -11.9259
ltibia 64.4876
lfoot -20.3557 3.78251
ltoes -14.0754
139
root -26.1613 15.1309 0.0995512 -158.542 66.8878 -173.913
lowerback 4.13282 3.53385 -0.226799
upperback 4.94677 4.84346 1.1074
thorax 2.66606 2.46022 1.17992
lowerneck -25.828 -5.50627 -8.48888
upperneck 27.2566 -5.127 3.43676
head 13.9356 -2.51808 1.82345
rclavicle -3.16068e-014 -2.78299e-014
rhumerus -28.7077 17.333 -83.2576
rradius 62.8842
rwrist -21.8258
rhand -14.9642 -27.0527
rfingers 7.12502
rthumb 11.1993 -56.7338
lclavicle -3.16068e-014 -2.78299e-014
lhumerus -45.871 4.3626 80.4268
lradius 29.5963
lwrist 16.0325
lhand -15.5317 -15.3945
lfingers 7.12502
lthumb 10.6519 14.3155
rfemur 12.5781 5.16297 19.4453
rtibia 10.7218
rfoot -35.9465 -33.3754
rtoes -15.2495
lfemur -46.1096 23.4572 -12.614
ltibia 66.6608
lfoot -20.8805 3.2638
ltoes -15.4079
140
root -25.8922 15.0488 -0.183494 -159.253 66.3073 -175.125
lowerback 3.6923 3.56213 -0.784347
upperback 4.73051 4.85786 0.99694
thorax 2.65153 2.44566 1.39524
lowerneck -25.4751 -6.31128 -9.46853
upperneck 27.0129 -6.27979 4.54011
head 13.931 -2.96368 2.20027
rclavicle 1.27222e-014 -2.38542e-015
rhumerus -29.5532 16.2873 -82.9176
rradius 63.0087
rwrist -23.2772
rhand -16.3646 -25.8015
rfingers 7.12502
rthumb 9.84836 -55.5512
lclavicle 1.27222e-014 -2.38542e-015
lhumerus -45.3086 2.36484 80.7275
lradius 31.8757
lwrist 17.8528
lhand -15.4237 -14.7365
lfingers 7.12502
lthumb 10.7561 14.9681
rfemur 13.3987 3.00143 17.801
rtibia 11.1033
rfoot -32.7753 -32.0687
rtoes -20.3967
lfemur -46.0379 23.5799 -13.6639
ltibia 68.3107
lfoot -21.9468 3.23327
ltoes -15.7534
